<svg width="40" height="40" viewBox="0 0 40 40" fill="none" xmlns="http://www.w3.org/2000/svg">
<g clip-path="url(#clip0_4_902)">
<path d="M20 2.06624e-06C8.95431 1.1006e-06 -1.1006e-06 8.9543 -2.06624e-06 20C-3.03189e-06 31.0457 8.9543 40 20 40C31.0457 40 40 31.0457 40 20C40 8.95431 31.0457 3.03189e-06 20 2.06624e-06Z" fill="#0052B4"/>
<path d="M20.0008 32.1748L19.3532 30.1819L17.2579 30.1819L18.9531 28.9503L18.3056 26.9574L20.0008 28.1891L21.6961 26.9574L21.0485 28.9503L22.7438 30.1819L20.6484 30.1819L20.0008 32.1748Z" fill="#FFDA44"/>
<path d="M28.6073 28.6103L26.7402 27.6591L25.2585 29.1406L25.5864 27.0711L23.7193 26.1198L25.7889 25.792L26.1167 23.7223L27.068 25.5894L29.1376 25.2615L27.6559 26.7431L28.6073 28.6103Z" fill="#FFDA44"/>
<path d="M32.175 20.0007L30.1822 20.6483L30.1822 22.7437L28.9506 21.0483L26.9576 21.6959L28.1894 20.0007L26.9576 18.3054L28.9506 18.9529L30.1822 17.2577L30.1822 19.3531L32.175 20.0007Z" fill="#FFDA44"/>
<path d="M28.6073 11.3933L27.656 13.2605L29.1376 14.7421L27.068 14.4141L26.1168 16.2812L25.7889 14.2116L23.7194 13.8838L25.5862 12.9325L25.2585 10.863L26.7402 12.3446L28.6073 11.3933Z" fill="#FFDA44"/>
<path d="M20.0008 7.82619L20.6485 9.81908L22.7438 9.81908L21.0485 11.0507L21.6961 13.0435L20.0008 11.8119L18.3056 13.0435L18.9531 11.0507L17.2579 9.81908L19.3533 9.81908L20.0008 7.82619Z" fill="#FFDA44"/>
<path d="M11.3934 11.3933L13.2605 12.3445L14.7422 10.8629L14.4143 12.9326L16.2813 13.8838L14.2117 14.2116L13.8839 16.2812L12.9327 14.4141L10.8631 14.7421L12.3448 13.2603L11.3934 11.3933Z" fill="#FFDA44"/>
<path d="M7.82656 20.0007L9.81945 19.3531L9.81945 17.2577L11.0511 18.953L13.0438 18.3054L11.8122 20.0007L13.0438 21.6959L11.051 21.0483L9.81945 22.7437L9.81945 20.6482L7.82656 20.0007Z" fill="#FFDA44"/>
<path d="M11.3934 28.6104L12.3447 26.7432L10.863 25.2616L12.9327 25.5895L13.8839 23.7224L14.2117 25.792L16.2813 26.1199L14.4143 27.0712L14.7422 29.1406L13.2604 27.6591L11.3934 28.6104Z" fill="#FFDA44"/>
</g>
<defs>
<clipPath id="clip0_4_902">
<rect width="40" height="40" fill="white" transform="translate(40 40) rotate(-180)"/>
</clipPath>
</defs>
</svg>
