<svg width="90" height="90" viewBox="0 0 90 90" fill="none" xmlns="http://www.w3.org/2000/svg">
<g clip-path="url(#clip0_2_82)">
<path d="M45 3.69537e-06C20.1472 1.52267e-06 -1.52267e-06 20.1472 -3.69537e-06 45C-5.86807e-06 69.8528 20.1472 90 45 90C69.8528 90 90 69.8528 90 45C90 20.1472 69.8528 5.86807e-06 45 3.69537e-06Z" fill="#0052B4"/>
<path d="M45.0017 72.3936L43.5447 67.9096L38.8302 67.9096L42.6445 65.1384L41.1874 60.6544L45.0017 63.4257L48.8162 60.6544L47.3591 65.1384L51.1734 67.9096L46.4588 67.9096L45.0017 72.3936Z" fill="#FFDA44"/>
<path d="M64.3664 64.3732L60.1652 62.2329L56.8315 65.5664L57.5692 60.91L53.3683 58.7695L58.0249 58.0319L58.7625 53.3751L60.9029 57.5761L65.5594 56.8383L62.2257 60.172L64.3664 64.3732Z" fill="#FFDA44"/>
<path d="M72.3937 45.0017L67.9097 46.4587L67.9097 51.1733L65.1387 47.3589L60.6545 48.8159L63.4261 45.0017L60.6545 41.1874L65.1387 42.6443L67.9097 38.83L67.9097 43.5446L72.3937 45.0017Z" fill="#FFDA44"/>
<path d="M64.3664 25.6349L62.2259 29.8361L65.5594 33.1697L60.9028 32.4318L58.7626 36.6328L58.0249 31.9762L53.3684 31.2386L57.5689 29.0981L56.8315 24.4417L60.1652 27.7754L64.3664 25.6349Z" fill="#FFDA44"/>
<path d="M45.0017 17.6093L46.4589 22.0933L51.1734 22.0933L47.3589 24.8645L48.8162 29.3481L45.0017 26.5771L41.1874 29.3481L42.6445 24.8645L38.8302 22.0933L43.5448 22.0933L45.0017 17.6093Z" fill="#FFDA44"/>
<path d="M25.6351 25.6349L29.8361 27.7752L33.1699 24.4415L32.4322 29.0983L36.6328 31.2386L31.9764 31.9762L31.2388 36.6328L29.0985 32.4318L24.442 33.1697L27.7757 29.8357L25.6351 25.6349Z" fill="#FFDA44"/>
<path d="M17.6096 45.0017L22.0936 43.5446L22.0936 38.83L24.8648 42.6444L29.3485 41.1874L26.5773 45.0017L29.3484 48.8159L24.8646 47.3589L22.0936 51.1733L22.0936 46.4585L17.6096 45.0017Z" fill="#FFDA44"/>
<path d="M25.6351 64.3734L27.7755 60.1722L24.4419 56.8385L29.0987 57.5764L31.2388 53.3754L31.9764 58.0321L36.6328 58.7698L32.4322 60.9101L33.1699 65.5664L29.8359 62.2329L25.6351 64.3734Z" fill="#FFDA44"/>
</g>
<defs>
<clipPath id="clip0_2_82">
<rect width="90" height="90" fill="white" transform="translate(90 90) rotate(-180)"/>
</clipPath>
</defs>
</svg>
