<svg width="193" height="93" viewBox="0 0 193 93" fill="none" xmlns="http://www.w3.org/2000/svg">
<path d="M45.3863 32.5308H39.4969C37.7139 32.5308 36.3091 31.1093 36.3091 29.3051V23.3456C36.3091 21.5961 37.7139 20.1199 39.4969 20.1199H45.3863C47.1153 20.1199 48.5742 21.5414 48.5742 23.3456V29.3051C48.5742 31.1093 47.1694 32.5308 45.3863 32.5308Z" fill="#070707"/>
<path d="M30.0955 45.9259H23.5036C21.5045 45.9259 19.9376 44.2857 19.9376 42.3175V35.5926C19.9376 33.6243 21.5585 31.9841 23.5036 31.9841H30.1495C32.1487 31.9841 33.7156 33.6243 33.7156 35.5926V42.3175C33.7156 44.3404 32.0946 45.9259 30.0955 45.9259Z" fill="#070707"/>
<path d="M29.5011 59.8677H25.4488C24.2601 59.8677 23.2875 58.8836 23.2875 57.6808V53.5803C23.2875 52.3774 24.2601 51.3933 25.4488 51.3933H29.5011C30.6898 51.3933 31.6624 52.3774 31.6624 53.5803V57.6808C31.6624 58.8836 30.6898 59.8677 29.5011 59.8677Z" fill="#070707"/>
<path d="M40.3614 72.8253H35.5526C34.1478 72.8253 32.9591 71.6772 32.9591 70.201V65.335C32.9591 63.9135 34.0938 62.7107 35.5526 62.7107H40.3614C41.7662 62.7107 42.9549 63.8588 42.9549 65.335V70.201C42.9549 71.6772 41.8203 72.8253 40.3614 72.8253Z" fill="#070707"/>
<path d="M57.9216 34.9912H54.6257C53.6531 34.9912 52.8427 34.1711 52.8427 33.1869V29.8518C52.8427 28.8677 53.6531 28.0476 54.6257 28.0476H57.9216C58.8942 28.0476 59.7046 28.8677 59.7046 29.8518V33.1869C59.7587 34.1711 58.9482 34.9912 57.9216 34.9912Z" fill="#070707"/>
<path d="M130.648 37.2329C131.728 37.2329 132.539 36.3581 132.539 35.3193C132.539 34.2259 131.674 33.4058 130.648 33.4058C129.567 33.4058 128.703 34.2805 128.703 35.3193C128.703 36.3581 129.567 37.2329 130.648 37.2329Z" fill="#070707"/>
<path d="M60.7853 57.8995C60.5151 58.3369 60.0288 58.5556 59.4885 58.5556C59.2184 58.5556 58.8401 58.5009 58.624 58.3369C58.1918 58.0635 57.9216 57.5168 57.9216 56.97C57.9216 56.6967 57.9756 56.4233 58.1377 56.2046L62.5683 49.1517L58.1377 42.0988C57.9756 41.8801 57.9216 41.552 57.9216 41.3333C57.9216 40.7866 58.1918 40.2399 58.6781 39.9665C58.9482 39.8025 59.2184 39.7478 59.4885 39.7478C60.0288 39.7478 60.5151 39.9665 60.8393 40.4039L64.4594 46.1993L68.1335 40.4039C68.4037 39.9665 68.944 39.7478 69.4843 39.7478C69.7545 39.7478 70.0246 39.8025 70.2948 39.9665C70.7811 40.2399 71.0512 40.7866 71.0512 41.3333C71.0512 41.6067 70.9972 41.8801 70.8351 42.0988L66.4045 49.1517L70.8351 56.2046C70.9972 56.4233 71.0512 56.6967 71.0512 56.97C71.0512 57.5168 70.7811 58.1182 70.3488 58.3369C70.0787 58.5009 69.7545 58.5556 69.4843 58.5556C68.944 58.5556 68.5118 58.3369 68.1876 57.8995L64.5134 52.1587L60.7853 57.8995Z" fill="#070707"/>
<path d="M76.6165 41.88C78.2914 40.3491 80.5607 39.4197 82.9922 39.4197C88.3413 39.4197 92.5557 43.7389 92.5557 49.0969C92.5557 54.4003 88.2872 58.7195 82.9922 58.7195C80.5607 58.7195 78.2914 57.79 76.6165 56.2592V64.5149C76.6165 65.335 75.86 66.0458 75.0495 66.0458C74.2931 66.0458 73.4826 65.335 73.4826 64.5149V41.1146C73.4826 40.2945 74.2391 39.5837 75.0495 39.5837C75.914 39.5837 76.6165 40.2945 76.6165 41.1146V41.88ZM82.9381 42.6454C79.3721 42.6454 76.5624 45.4885 76.5624 49.0969C76.5624 52.7054 79.3721 55.5484 82.9381 55.5484C86.5042 55.5484 89.3138 52.7054 89.3138 49.0969C89.3679 45.4885 86.5582 42.6454 82.9381 42.6454Z" fill="#070707"/>
<path d="M119.625 47.3474V57.0246C119.625 57.8447 118.869 58.5555 118.059 58.5555C117.194 58.5555 116.492 57.8447 116.492 57.0246V41.1146C116.492 40.2945 117.248 39.5837 118.059 39.5837C118.815 39.5837 119.571 40.2398 119.625 41.0599C120.922 40.0758 122.597 39.4744 124.38 39.4744C125.353 39.4744 126.109 40.2398 126.109 41.0599C126.109 41.9347 125.353 42.7001 124.38 42.7001C121.949 42.7548 119.625 43.6296 119.625 47.3474Z" fill="#070707"/>
<path d="M130.648 39.5837C129.783 39.5837 129.081 40.2945 129.081 41.1146V57.0793C129.081 57.8994 129.837 58.6102 130.648 58.6102C131.404 58.6102 132.215 57.8994 132.215 57.0793V41.1146C132.215 40.2945 131.458 39.5837 130.648 39.5837Z" fill="#070707"/>
<path d="M150.747 41.1146C150.747 40.2945 151.504 39.5837 152.314 39.5837C153.071 39.5837 153.881 40.2945 153.881 41.1146V57.0793C153.881 57.8994 153.125 58.6102 152.314 58.6102C151.45 58.6102 150.747 57.8994 150.747 57.0793V56.3139C149.018 57.8447 146.803 58.7742 144.372 58.7742C139.023 58.7742 134.808 54.455 134.808 49.0969C134.808 43.7936 139.077 39.4744 144.372 39.4744C146.803 39.4744 149.018 40.4038 150.747 41.9347V41.1146ZM144.372 55.5484C147.938 55.5484 150.747 52.7054 150.747 49.0969C150.747 45.4885 147.938 42.6454 144.372 42.6454C140.806 42.6454 137.996 45.4885 137.996 49.0969C137.996 52.7054 140.806 55.5484 144.372 55.5484Z" fill="#070707"/>
<path d="M169.929 47.5661C169.929 44.8871 167.659 42.5908 165.012 42.5908C162.472 42.5908 160.095 43.6296 160.095 47.4021V57.0793C160.095 57.8994 159.338 58.6102 158.528 58.6102C157.663 58.6102 156.961 57.8994 156.961 57.0793V41.1146C156.961 40.2945 157.718 39.5837 158.528 39.5837C159.284 39.5837 160.041 40.2398 160.095 41.0599C161.446 40.0211 163.121 39.4744 164.958 39.4744C169.226 39.4744 173.062 42.8641 173.062 47.1287V57.0793C173.062 57.8994 172.306 58.6102 171.496 58.6102C170.631 58.6102 169.929 57.8994 169.929 57.0793V47.5661Z" fill="#070707"/>
<path d="M57.0031 48.5502C56.949 43.6296 52.6265 39.4744 47.4936 39.4744C42.1445 39.4744 37.93 43.7936 37.93 49.0969C37.93 54.5096 42.1985 58.7742 47.4936 58.7742C50.033 58.7742 52.4104 57.7901 54.1394 56.0405C54.4636 55.7671 54.6797 55.2751 54.6797 54.8377C54.6797 53.9629 53.9233 53.2521 53.1128 53.2521C52.6265 53.2521 52.1943 53.5255 51.8701 53.9082C50.7895 55.0564 49.2226 55.6031 47.5476 55.6031C44.3597 55.6031 41.7662 53.4162 41.2259 50.3544H55.4902C55.4902 50.3544 55.4902 50.3544 55.5442 50.3544H55.5983H55.6523C55.7063 50.3544 55.7604 50.3544 55.8144 50.2998C56.4628 50.0264 57.0031 49.3703 57.0031 48.5502ZM47.4936 42.6454C50.3572 42.6454 52.7346 44.5043 53.5451 47.1287H41.388C42.1985 44.5043 44.5759 42.6454 47.4936 42.6454Z" fill="#070707"/>
<path d="M113.844 48.5502C113.79 43.6296 109.413 39.4744 104.335 39.4744C98.9854 39.4744 94.771 43.7936 94.771 49.0969C94.771 54.5096 99.0395 58.7742 104.335 58.7742C106.874 58.7742 109.251 57.7901 110.98 56.0405C111.305 55.7671 111.521 55.2751 111.521 54.8377C111.521 53.9629 110.764 53.2521 109.954 53.2521C109.468 53.2521 109.035 53.5255 108.711 53.9082C107.63 55.0564 106.064 55.6031 104.389 55.6031C101.201 55.6031 98.6072 53.4162 98.0669 50.3544H112.331C112.331 50.3544 112.331 50.3544 112.385 50.3544H112.439C112.493 50.3544 112.547 50.3544 112.547 50.3544H112.601C113.25 50.0811 113.844 49.3703 113.844 48.5502ZM104.335 42.6454C107.198 42.6454 109.576 44.5043 110.386 47.1287H98.229C99.0395 44.5043 101.417 42.6454 104.335 42.6454Z" fill="#070707"/>
<path d="M176.412 58.6102C176.25 58.6102 176.142 58.5009 176.142 58.3368V55.6578H175.548C175.386 55.6578 175.278 55.5485 175.278 55.3845C175.278 55.2204 175.386 55.1111 175.548 55.1111H177.277C177.439 55.1111 177.547 55.2204 177.547 55.3845C177.547 55.5485 177.439 55.6578 177.277 55.6578H176.683V58.3368C176.683 58.5009 176.574 58.6102 176.412 58.6102Z" fill="#070707"/>
<path d="M179.492 58.6102C179.33 58.6102 179.276 58.5009 179.222 58.3915L178.466 56.2046V58.3368C178.466 58.5009 178.357 58.6102 178.195 58.6102C178.033 58.6102 177.925 58.5009 177.925 58.3368V55.4938C177.925 55.2751 178.087 55.1111 178.303 55.1111C178.466 55.1111 178.628 55.2204 178.682 55.3845L179.438 57.6261L180.195 55.3845C180.249 55.2204 180.411 55.1111 180.573 55.1111C180.789 55.1111 180.951 55.2751 180.951 55.4938V58.3368C180.951 58.5009 180.843 58.6102 180.681 58.6102C180.519 58.6102 180.411 58.5009 180.411 58.3368V56.2046C180.303 56.5326 180.141 57.0793 179.978 57.5167C179.708 58.3915 179.654 58.3915 179.654 58.3915C179.708 58.5555 179.6 58.6102 179.492 58.6102Z" fill="#070707"/>
</svg>
