<svg width="50" height="50" viewBox="0 0 50 50" fill="none" xmlns="http://www.w3.org/2000/svg">
<rect width="50" height="50" rx="25" fill="black"/>
<path fill-rule="evenodd" clip-rule="evenodd" d="M31.6625 37.0368C32.1423 37.0368 32.5858 36.7858 32.8257 36.3782L36.5564 30.0414C37.7476 28.0181 38.1822 25.6964 37.8603 23.4554C37.8259 23.2161 37.511 23.1642 37.3878 23.3736L35.9095 25.8845C35.7176 26.2105 35.3629 26.4114 34.9789 26.4114H27.7334C26.7736 26.4114 25.8868 26.9135 25.4069 27.7286L21.0901 35.061C20.5731 35.9391 21.2193 37.0368 22.2533 37.0368H31.6625ZM13.5382 27.5519C13.415 27.7613 13.1002 27.7095 13.0658 27.4701C12.7438 25.2291 13.1784 22.9075 14.3697 20.8841L18.1003 14.5473C18.3403 14.1397 18.7837 13.8887 19.2636 13.8887L28.6727 13.8887C29.7067 13.8887 30.3529 14.9864 29.8359 15.8645L25.5191 23.1969C25.0392 24.012 24.1524 24.5142 23.1927 24.5142H15.792C15.504 24.5142 15.238 24.6648 15.094 24.9093L13.5382 27.5519Z" fill="white"/>
</svg>
