<svg width="50" height="50" viewBox="0 0 50 50" fill="none" xmlns="http://www.w3.org/2000/svg">
<rect width="50" height="50" rx="25" fill="black"/>
<path fill-rule="evenodd" clip-rule="evenodd" d="M31.6625 37.0371C32.1423 37.0371 32.5858 36.786 32.8257 36.3785L36.5564 30.0417C37.7476 28.0183 38.1822 25.6967 37.8603 23.4557C37.8259 23.2163 37.511 23.1644 37.3878 23.3738L35.9095 25.8847C35.7176 26.2107 35.3629 26.4116 34.9789 26.4116H27.7334C26.7736 26.4116 25.8868 26.9137 25.4069 27.7288L21.0901 35.0612C20.5731 35.9394 21.2193 37.0371 22.2533 37.0371H31.6625ZM13.5382 27.5522C13.415 27.7615 13.1002 27.7097 13.0658 27.4703C12.7438 25.2293 13.1784 22.9077 14.3697 20.8843L18.1003 14.5475C18.3403 14.14 18.7837 13.8889 19.2636 13.8889L28.6727 13.8889C29.7067 13.8889 30.3529 14.9866 29.8359 15.8648L25.5191 23.1972C25.0392 24.0123 24.1524 24.5144 23.1927 24.5144H15.792C15.504 24.5144 15.238 24.665 15.094 24.9096L13.5382 27.5522Z" fill="white"/>
</svg>
