<svg width="48" height="48" viewBox="0 0 48 48" fill="none" xmlns="http://www.w3.org/2000/svg">
<rect width="48" height="48" rx="24" fill="#0052B4"/>
<path d="M24.209 9.6001L24.9861 11.9916H27.5005L25.4662 13.4695L26.2433 15.861L24.209 14.3829L22.1747 15.861L22.9518 13.4695L20.9175 11.9916H23.4319L24.209 9.6001Z" fill="#FFDA44"/>
<path d="M13.8813 13.8776L16.1219 15.0191L17.8999 13.2412L17.5064 15.7246L19.7469 16.8662L17.2634 17.2596L16.87 19.7432L15.7284 17.5027L13.245 17.8962L15.023 16.1182L13.8813 13.8776Z" fill="#FFDA44"/>
<path d="M9.59998 24.209L11.9914 23.4319V20.9175L13.4693 22.9519L15.8609 22.1748L14.3827 24.209L15.8609 26.2433L13.4693 25.4663L11.9914 27.5006V24.9861L9.59998 24.209Z" fill="#FFDA44"/>
<path d="M13.8813 34.5379L15.0229 32.2973L13.245 30.5193L15.7285 30.9129L16.8699 28.6724L17.2634 31.1559L19.7468 31.5493L17.5066 32.6909L17.8999 35.1743L16.1219 33.3963L13.8813 34.5379Z" fill="#FFDA44"/>
<path d="M24.209 38.8183L23.4319 36.4269H20.9175L22.9519 34.9489L22.1747 32.5576L24.209 34.0355L26.2433 32.5576L25.4662 34.9489L27.5005 36.4269H24.986L24.209 38.8183Z" fill="#FFDA44"/>
<path d="M34.538 34.5379L32.2974 33.3964L30.5194 35.1744L30.9128 32.6908L28.6725 31.5493L31.1559 31.1559L31.5493 28.6724L32.6908 30.9129L35.1742 30.5193L33.3963 32.2975L34.538 34.5379Z" fill="#FFDA44"/>
<path d="M38.8182 24.209L36.4267 24.9861V27.5006L34.9488 25.4662L32.5575 26.2433L34.0355 24.209L32.5575 22.1748L34.9489 22.9519L36.4267 20.9175V23.432L38.8182 24.209Z" fill="#FFDA44"/>
<path d="M34.538 13.8775L33.3964 16.1181L35.1743 17.8961L32.6907 17.5025L31.5493 19.7431L31.1559 17.2595L28.6725 16.8661L30.9128 15.7246L30.5194 13.2412L32.2975 15.0191L34.538 13.8775Z" fill="#FFDA44"/>
</svg>
