<svg width="20" height="20" viewBox="0 0 20 20" fill="none" xmlns="http://www.w3.org/2000/svg">
<path d="M4.07405 10C4.07405 10.5455 4.51624 10.9877 5.0617 10.9877H14.9382C15.4837 10.9877 15.9259 10.5455 15.9259 10V10C15.9259 9.45456 15.4837 9.01237 14.9382 9.01237H5.0617C4.51623 9.01237 4.07405 9.45456 4.07405 10V10ZM2.09874 4.0741C1.55327 4.0741 1.11108 4.51628 1.11108 5.06175V5.06175C1.11108 5.60722 1.55327 6.04941 2.09874 6.04941H17.9012C18.4467 6.04941 18.8889 5.60722 18.8889 5.06175V5.06175C18.8889 4.51628 18.4467 4.0741 17.9012 4.0741H2.09874ZM8.02466 14.9383C8.02466 15.4838 8.46685 15.9259 9.01232 15.9259H10.9876C11.5331 15.9259 11.9753 15.4838 11.9753 14.9383V14.9383C11.9753 14.3928 11.5331 13.9506 10.9876 13.9506H9.01232C8.46685 13.9506 8.02466 14.3928 8.02466 14.9383V14.9383Z" fill="#070707" fill-opacity="0.5"/>
</svg>
