<svg width="17" height="17" viewBox="0 0 17 17" fill="none" xmlns="http://www.w3.org/2000/svg">
<g clip-path="url(#clip0_13_2971)">
<path d="M0.552038 16.2621H2.76207C3.06696 16.2621 3.3141 16.015 3.3141 15.7101V6.05008C3.3141 5.74516 3.06696 5.49805 2.76207 5.49805H0.552038C0.24711 5.49805 0 5.74516 0 6.05008V15.7101C0 16.0149 0.24711 16.2621 0.552038 16.2621Z" fill="white"/>
<path d="M0.552038 3.80097H2.76207C3.06696 3.80097 3.3141 3.55383 3.3141 3.24893V1.28641C3.3141 0.981516 3.06696 0.734375 2.76207 0.734375H0.552038C0.24711 0.734375 0 0.981516 0 1.28641V3.24893C0 3.55383 0.24711 3.80097 0.552038 3.80097Z" fill="white"/>
<path d="M16.1668 6.61837C15.8562 6.20959 15.3983 5.87341 14.7928 5.60991C14.1873 5.34659 13.519 5.21484 12.7877 5.21484C11.3033 5.21484 10.0454 5.78137 9.0142 6.91463C8.80901 7.14012 8.65982 7.09082 8.65982 6.78589V6.04997C8.65982 5.74505 8.41265 5.49794 8.10775 5.49794H6.13358C5.82865 5.49794 5.58154 5.74505 5.58154 6.04997V15.71C5.58154 16.0149 5.82868 16.262 6.13358 16.262H8.34361C8.64854 16.262 8.89565 16.0149 8.89565 15.71V12.3505C8.89565 10.9509 8.98016 9.99159 9.14918 9.47267C9.31815 8.95375 9.63079 8.53707 10.0868 8.22254C10.5429 7.90802 11.0579 7.75068 11.6319 7.75068C12.0801 7.75068 12.4634 7.86078 12.7819 8.08101C13.1004 8.30121 13.3304 8.60968 13.4719 9.00684C13.6135 9.40393 13.6842 10.2786 13.6842 11.6311V15.7099C13.6842 16.0148 13.9313 16.262 14.2362 16.262H16.4463C16.7512 16.262 16.9983 16.0148 16.9983 15.7099V10.2393C16.9983 9.27224 16.9373 8.52916 16.8156 8.01025C16.6938 7.49133 16.4775 7.02737 16.1668 6.61837Z" fill="white"/>
</g>
<defs>
<clipPath id="clip0_13_2971">
<rect width="17" height="17" fill="white"/>
</clipPath>
</defs>
</svg>
