<svg width="22" height="22" viewBox="0 0 22 22" fill="none" xmlns="http://www.w3.org/2000/svg">
<g clip-path="url(#clip0_13_1659)">
<path d="M0.714402 21.0452H3.57444C3.96901 21.0452 4.28884 20.7254 4.28884 20.3308V7.82964C4.28884 7.43502 3.96901 7.11523 3.57444 7.11523H0.714402C0.319789 7.11523 0 7.43502 0 7.82964V20.3308C0 20.7253 0.319789 21.0452 0.714402 21.0452Z" fill="#070707"/>
<path d="M0.714402 4.91873H3.57444C3.96901 4.91873 4.28884 4.5989 4.28884 4.20433V1.6646C4.28884 1.27002 3.96901 0.950195 3.57444 0.950195H0.714402C0.319789 0.950195 0 1.27002 0 1.6646V4.20433C0 4.5989 0.319789 4.91873 0.714402 4.91873Z" fill="#070707"/>
<path d="M20.9222 8.56536C20.5203 8.03634 19.9276 7.60129 19.1441 7.26029C18.3605 6.91952 17.4956 6.74902 16.5493 6.74902C14.6282 6.74902 13.0004 7.48217 11.6659 8.94874C11.4004 9.24055 11.2073 9.17676 11.2073 8.78214V7.82978C11.2073 7.43517 10.8874 7.11538 10.4928 7.11538H7.93803C7.54342 7.11538 7.22363 7.43517 7.22363 7.82978V20.3309C7.22363 20.7255 7.54346 21.0454 7.93803 21.0454H10.7981C11.1927 21.0454 11.5125 20.7255 11.5125 20.3309V15.9834C11.5125 14.1722 11.6218 12.9307 11.8406 12.2592C12.0592 11.5876 12.4638 11.0484 13.054 10.6413C13.6442 10.2343 14.3106 10.0307 15.0535 10.0307C15.6335 10.0307 16.1296 10.1732 16.5417 10.4582C16.9539 10.7431 17.2515 11.1423 17.4347 11.6563C17.6179 12.1702 17.7095 13.3022 17.7095 15.0524V20.3309C17.7095 20.7255 18.0293 21.0453 18.4238 21.0453H21.2839C21.6784 21.0453 21.9982 20.7255 21.9982 20.3309V13.2513C21.9982 11.9998 21.9193 11.0381 21.7618 10.3666C21.6042 9.69507 21.3243 9.09465 20.9222 8.56536Z" fill="#070707"/>
</g>
<defs>
<clipPath id="clip0_13_1659">
<rect width="22" height="22" fill="white"/>
</clipPath>
</defs>
</svg>
