<svg width="17" height="17" viewBox="0 0 17 17" fill="none" xmlns="http://www.w3.org/2000/svg">
<g clip-path="url(#clip0_13_3824)">
<path d="M0.552038 16.2621H2.76207C3.06696 16.2621 3.3141 16.015 3.3141 15.7101V6.05008C3.3141 5.74516 3.06696 5.49805 2.76207 5.49805H0.552038C0.24711 5.49805 0 5.74516 0 6.05008V15.7101C0 16.0149 0.24711 16.2621 0.552038 16.2621Z" fill="white"/>
<path d="M0.552038 3.80097H2.76207C3.06696 3.80097 3.3141 3.55383 3.3141 3.24893V1.28641C3.3141 0.981516 3.06696 0.734375 2.76207 0.734375H0.552038C0.24711 0.734375 0 0.981516 0 1.28641V3.24893C0 3.55383 0.24711 3.80097 0.552038 3.80097Z" fill="white"/>
<path d="M16.1669 6.61837C15.8563 6.20959 15.3984 5.87341 14.7929 5.60991C14.1874 5.34659 13.5191 5.21484 12.7878 5.21484C11.3034 5.21484 10.0455 5.78137 9.01433 6.91463C8.80913 7.14012 8.65994 7.09082 8.65994 6.78589V6.04997C8.65994 5.74505 8.41277 5.49794 8.10788 5.49794H6.1337C5.82877 5.49794 5.58167 5.74505 5.58167 6.04997V15.71C5.58167 16.0149 5.82881 16.262 6.1337 16.262H8.34373C8.64866 16.262 8.89577 16.0149 8.89577 15.71V12.3505C8.89577 10.9509 8.98028 9.99159 9.14931 9.47267C9.31827 8.95375 9.63092 8.53707 10.0869 8.22254C10.543 7.90802 11.058 7.75068 11.632 7.75068C12.0802 7.75068 12.4635 7.86078 12.782 8.08101C13.1005 8.30121 13.3305 8.60968 13.472 9.00684C13.6136 9.40393 13.6844 10.2786 13.6844 11.6311V15.7099C13.6844 16.0148 13.9315 16.262 14.2364 16.262H16.4464C16.7513 16.262 16.9984 16.0148 16.9984 15.7099V10.2393C16.9984 9.27224 16.9374 8.52916 16.8157 8.01025C16.6939 7.49133 16.4776 7.02737 16.1669 6.61837Z" fill="white"/>
</g>
<defs>
<clipPath id="clip0_13_3824">
<rect width="17" height="17" fill="white"/>
</clipPath>
</defs>
</svg>
